<?xml version="1.0" standalone="no"?>
<!DOCTYPE svg PUBLIC "-//W3C//DTD SVG 20010904//EN"
 "http://www.w3.org/TR/2001/REC-SVG-20010904/DTD/svg10.dtd">
<svg version="1.0" xmlns="http://www.w3.org/2000/svg"
 width="48.000000pt" height="48.000000pt" viewBox="0 0 48.000000 48.000000"
 preserveAspectRatio="xMidYMid meet">

<g transform="translate(0.000000,48.000000) scale(0.100000,-0.100000)"
fill="#000000" stroke="none">
<path d="M49 448 c-1 -40 -7 -95 -14 -126 -4 -16 -11 -22 -20 -18 -9 3 -15 -1
-15 -10 0 -8 5 -12 10 -9 6 3 10 -1 10 -9 0 -9 -3 -16 -7 -16 -5 0 -9 -35 -10
-78 -1 -42 1 -69 5 -59 7 16 10 14 30 -12 26 -35 27 -42 7 -35 -8 4 -15 1 -15
-5 0 -18 -18 -13 -23 7 -3 9 -5 -4 -6 -30 l-1 -48 100 0 c75 0 100 3 99 12 -3
26 1 39 11 33 6 -4 9 -1 8 7 -4 16 -25 26 -59 27 -34 1 -79 37 -62 49 8 5 9
13 3 22 -6 8 -10 25 -10 36 0 24 26 51 38 39 4 -4 1 -10 -5 -12 -15 -5 -17
-33 -3 -33 6 0 10 4 10 9 0 5 8 7 19 4 25 -6 35 11 20 38 -8 15 -8 19 0 15 6
-4 11 -2 11 3 0 6 -7 11 -15 11 -17 0 -19 9 -6 28 6 10 10 8 14 -9 5 -20 10
-22 66 -16 36 3 61 1 61 -5 0 -5 4 -7 9 -3 5 3 12 1 16 -5 3 -5 1 -10 -5 -10
-7 0 -10 -6 -7 -12 2 -7 12 -12 21 -10 10 2 24 -2 32 -9 20 -17 19 10 -3 41
l-16 25 27 -25 c24 -21 27 -31 23 -63 -3 -23 -1 -35 5 -31 6 4 8 -2 6 -12 -2
-11 -24 -29 -55 -44 -33 -16 -50 -29 -45 -36 4 -6 14 -10 23 -9 9 2 23 -2 30
-7 11 -8 11 -9 -3 -5 -9 3 -19 -1 -22 -9 -3 -8 -2 -13 3 -10 5 3 11 -1 15 -9
4 -11 21 -15 66 -15 l60 0 0 49 c0 30 -5 51 -12 54 -10 3 -10 9 0 26 20 34 6
135 -28 208 -24 50 -28 68 -20 88 10 25 4 55 -10 55 -4 0 -11 -16 -14 -35 l-7
-35 -30 15 c-23 12 -29 21 -24 36 5 15 2 19 -17 19 -13 0 -32 -7 -42 -15 -25
-19 -65 -19 -90 0 -28 21 -55 19 -49 -3 3 -13 -7 -27 -31 -46 l-36 -27 0 45
c0 52 -20 64 -21 14z m281 -63 c6 -8 8 -20 4 -26 -5 -9 -11 -7 -21 6 -23 33
-9 51 17 20z m58 -7 c16 -16 15 -28 -1 -28 -7 0 -18 9 -25 20 -10 16 -10 20 1
20 7 0 18 -5 25 -12z m-252 -25 c-10 -10 -19 5 -10 18 6 11 8 11 12 0 2 -7 1
-15 -2 -18z m120 16 c3 -6 2 -15 -3 -20 -12 -12 -53 1 -53 17 0 17 46 19 56 3z
m-167 -30 c-12 -24 -23 -25 -15 -1 5 14 4 14 -9 -2 -18 -23 -20 -14 -3 13 16
26 41 16 27 -10z m241 -49 c0 -5 -4 -10 -10 -10 -5 0 -10 5 -10 10 0 6 5 10
10 10 6 0 10 -4 10 -10z m-150 -250 c-8 -5 -19 -10 -25 -10 -5 0 -3 5 5 10 8
5 20 10 25 10 6 0 3 -5 -5 -10z"/>
<path d="M450 429 c0 -5 5 -7 10 -4 6 3 10 8 10 11 0 2 -4 4 -10 4 -5 0 -10
-5 -10 -11z"/>
<path d="M1 394 c0 -11 3 -14 6 -6 3 7 2 16 -1 19 -3 4 -6 -2 -5 -13z"/>
<path d="M460 390 c0 -5 5 -10 10 -10 6 0 10 5 10 10 0 6 -4 10 -10 10 -5 0
-10 -4 -10 -10z"/>
<path d="M262 51 c-12 -7 -5 -51 8 -51 10 0 19 49 11 55 -4 2 -12 0 -19 -4z"/>
</g>
</svg>
